<svg width="70" height="70" viewBox="0 0 70 70" fill="none" xmlns="http://www.w3.org/2000/svg">
<path d="M51.4233 35.2718C51.1527 35.0007 50.8313 34.7857 50.4774 34.6389C50.1236 34.4922 49.7443 34.4167 49.3613 34.4167C48.9782 34.4167 48.5989 34.4922 48.2451 34.6389C47.8912 34.7857 47.5698 35.0007 47.2992 35.2718L42.3613 40.8339C40.2059 40.1923 36.4725 37.821 33.9233 35.2718C31.3742 32.7227 29.0029 28.7006 28.3613 26.5452L33.9233 21.896C34.1944 21.6254 34.4095 21.3039 34.5562 20.9501C34.703 20.5963 34.7785 20.217 34.7785 19.8339C34.7785 19.4509 34.703 19.0716 34.5562 18.7177C34.4095 18.3639 34.1944 18.0425 33.9233 17.7718L22.2567 6.10517C21.986 5.83408 21.6646 5.61901 21.3108 5.47227C20.9569 5.32553 20.5776 5.25 20.1946 5.25C19.8115 5.25 19.4322 5.32553 19.0784 5.47227C18.7246 5.61901 18.4031 5.83408 18.1325 6.10517L10.2225 14.0152C9.11416 15.1235 8.49 16.646 8.51333 18.2006C8.58041 22.3539 9.68 36.7798 21.0492 48.1489C32.4183 59.5181 46.8442 60.6148 51.0004 60.6848H51.0821C52.6221 60.6848 54.0775 60.0781 55.18 58.9756L63.09 51.0656C63.3611 50.795 63.5762 50.4735 63.7229 50.1197C63.8696 49.7659 63.9452 49.3866 63.9452 49.0035C63.9452 48.6204 63.8696 48.2411 63.7229 47.8873C63.5762 47.5335 63.3611 47.2121 63.09 46.9414L51.4233 35.2718ZM52.0627 57.75C47.9386 58.975 33.0179 55.753 23.2324 45.9646C13.4149 36.1471 10.0073 21.1867 11.8127 17.0625L15.528 12.9798L19.6877 8.75L31.2447 19.8339L24.5002 25.8125C24.0627 26.25 23.9374 26.4547 23.6252 26.6875C23.6252 26.6875 26.1196 32.4923 30.9612 37.3339C35.8029 42.1756 42.0951 45.5027 42.4377 45.5C42.9026 45.3619 43.4088 44.5318 43.7502 44.1875L49.3613 38.0625L60.5905 49.2923L56.2155 54.1048L54.2502 56L52.0627 57.75Z" fill="#009999"/>
</svg>
