<svg width="28" height="26" viewBox="0 0 28 26" fill="none" xmlns="http://www.w3.org/2000/svg">
<path fill-rule="evenodd" clip-rule="evenodd" d="M12.7278 0.772956C13.4086 0.307127 14.3056 0.307127 14.9865 0.772956L26.4083 8.58768C27.2256 9.14687 27.7143 10.0733 27.7143 11.0636V23.4034C27.7143 24.508 26.8189 25.4034 25.7143 25.4034H19.1429C18.0383 25.4034 17.1429 24.508 17.1429 23.4034V14.774H10.5714V23.4034C10.5714 24.508 9.676 25.4034 8.57143 25.4034H2C0.895431 25.4034 0 24.508 0 23.4034V11.0636C0 10.0733 0.488689 9.14687 1.30598 8.58768L12.7278 0.772956ZM13.8571 2.42358L2.43533 10.2383C2.1629 10.4247 2 10.7335 2 11.0636V23.4034H8.57143V14.774C8.57143 13.6694 9.46686 12.774 10.5714 12.774H17.1429C18.2474 12.774 19.1429 13.6694 19.1429 14.774V23.4034L25.7143 23.4034V11.0636C25.7143 10.7335 25.5514 10.4247 25.279 10.2383L13.8571 2.42358Z" fill="white"/>
</svg>
