<svg width="41" height="56" viewBox="0 0 41 56" fill="none" xmlns="http://www.w3.org/2000/svg">
<path fill-rule="evenodd" clip-rule="evenodd" d="M20.5001 3.75C10.9787 3.75 3.25012 11.5 3.25012 21.0724C3.25012 23.3692 4.28651 26.4651 6.02321 29.9615C7.73635 33.4105 10.0359 37.0655 12.3588 40.4236C14.6779 43.7764 17.0001 46.8043 18.7441 48.9956C19.4324 49.8605 20.0298 50.5939 20.5001 51.1642C20.9705 50.5939 21.5678 49.8605 22.2561 48.9956C24.0001 46.8043 26.3223 43.7764 28.6415 40.4236C30.9643 37.0655 33.2639 33.4105 34.977 29.9615C36.7137 26.4651 37.7501 23.3692 37.7501 21.0724C37.7501 11.5 30.0216 3.75 20.5001 3.75ZM20.5001 53.5C19.3632 54.4785 19.363 54.4783 19.3628 54.478L19.3619 54.477L19.3589 54.4734L19.3478 54.4605L19.3056 54.4113C19.2689 54.3682 19.2149 54.3048 19.1449 54.2221C19.0048 54.0568 18.8005 53.8141 18.5412 53.5022C18.0225 52.8786 17.2832 51.9776 16.3968 50.8638C14.6251 48.6377 12.2598 45.5541 9.89149 42.1302C7.52683 38.7117 5.13889 34.9249 3.3364 31.296C1.55748 27.7146 0.250122 24.0965 0.250122 21.0724C0.250122 9.8541 9.31091 0.75 20.5001 0.75C31.6893 0.75 40.7501 9.8541 40.7501 21.0724C40.7501 24.0965 39.4428 27.7146 37.6638 31.296C35.8613 34.9249 33.4734 38.7117 31.1088 42.1302C28.7404 45.5541 26.3751 48.6377 24.6035 50.8638C23.717 51.9776 22.9777 52.8786 22.4591 53.5022C22.1997 53.8141 21.9954 54.0568 21.8554 54.2221C21.7853 54.3048 21.7314 54.3682 21.6946 54.4113L21.6525 54.4605L21.6414 54.4734L21.6383 54.477L21.6375 54.478C21.6372 54.4783 21.637 54.4785 20.5001 53.5ZM20.5001 53.5L21.637 54.4785L20.5001 55.7995L19.3632 54.4785L20.5001 53.5ZM20.5001 13.8851C16.5546 13.8851 13.3463 17.0975 13.3463 21.0724C13.3463 25.0473 16.5546 28.2596 20.5001 28.2596C24.4456 28.2596 27.654 25.0473 27.654 21.0724C27.654 17.0975 24.4456 13.8851 20.5001 13.8851ZM10.3463 21.0724C10.3463 15.4516 14.8869 10.8851 20.5001 10.8851C26.1134 10.8851 30.654 15.4516 30.654 21.0724C30.654 26.6932 26.1134 31.2596 20.5001 31.2596C14.8869 31.2596 10.3463 26.6932 10.3463 21.0724Z" fill="white"/>
</svg>
