<svg width="60" height="61" viewBox="0 0 60 61" fill="none" xmlns="http://www.w3.org/2000/svg">
<path d="M44.0769 30.733C43.845 30.5006 43.5695 30.3163 43.2662 30.1905C42.9629 30.0647 42.6378 30 42.3094 30C41.9811 30 41.656 30.0647 41.3527 30.1905C41.0494 30.3163 40.7739 30.5006 40.5419 30.733L36.3095 35.5005C34.462 34.9505 31.2619 32.918 29.0769 30.733C26.8919 28.548 24.8595 25.1005 24.3095 23.253L29.0769 19.268C29.3093 19.036 29.4936 18.7605 29.6194 18.4572C29.7452 18.1539 29.8099 17.8288 29.8099 17.5005C29.8099 17.1722 29.7452 16.8471 29.6194 16.5438C29.4936 16.2405 29.3093 15.965 29.0769 15.733L19.0769 5.733C18.845 5.50064 18.5695 5.31629 18.2662 5.19052C17.9629 5.06474 17.6378 5 17.3094 5C16.9811 5 16.656 5.06474 16.3527 5.19052C16.0494 5.31629 15.7739 5.50064 15.5419 5.733L8.76193 12.513C7.81193 13.463 7.27693 14.768 7.29693 16.1005C7.35443 19.6605 8.29693 32.0255 18.0419 41.7705C27.7869 51.5155 40.1519 52.4555 43.7144 52.5155H43.7844C45.1044 52.5155 46.3519 51.9955 47.2969 51.0505L54.0769 44.2705C54.3093 44.0385 54.4936 43.763 54.6194 43.4597C54.7452 43.1564 54.8099 42.8313 54.8099 42.503C54.8099 42.1747 54.7452 41.8496 54.6194 41.5463C54.4936 41.243 54.3093 40.9675 54.0769 40.7355L44.0769 30.733ZM44.625 50C41.09 51.05 28.3008 48.2883 19.9133 39.8983C11.4983 31.4833 8.57748 18.66 10.125 15.125L13.3095 11.6255L16.875 8L26.781 17.5005L21 22.625C20.625 23 20.5175 23.1755 20.25 23.375C20.25 23.375 22.388 28.3505 26.538 32.5005C30.688 36.6505 36.0813 39.5023 36.375 39.5C36.7734 39.3816 37.2073 38.6701 37.5 38.375L42.3094 33.125L51.9345 42.7505L48.1845 46.8755L46.5 48.5L44.625 50Z" fill="white"/>
</svg>
