<svg width="19" height="20" viewBox="0 0 19 20" fill="none" xmlns="http://www.w3.org/2000/svg">
<path fill-rule="evenodd" clip-rule="evenodd" d="M9.49994 16.0114C9.68355 16.0114 9.85964 15.9413 9.98948 15.8167L16.9126 9.16893C17.1829 8.90932 17.1829 8.48841 16.9126 8.2288C16.6422 7.96919 16.2038 7.96919 15.9335 8.2288L10.1923 13.7417V1.16477C10.1923 0.797629 9.88229 0.5 9.49994 0.5C9.11759 0.5 8.80763 0.797629 8.80763 1.16477V13.7417L3.06646 8.22885C2.7961 7.96924 2.35775 7.96924 2.08739 8.22885C1.81702 8.48846 1.81702 8.90937 2.08739 9.16898L9.01041 15.8167C9.14024 15.9413 9.31633 16.0114 9.49994 16.0114Z" fill="#009999"/>
<path fill-rule="evenodd" clip-rule="evenodd" d="M0.5 19.3352C0.5 18.9681 0.809957 18.6705 1.19231 18.6705H17.8077C18.19 18.6705 18.5 18.9681 18.5 19.3352C18.5 19.7024 18.19 20 17.8077 20H1.19231C0.809957 20 0.5 19.7024 0.5 19.3352Z" fill="#009999"/>
</svg>
