<svg width="56" height="53" viewBox="0 0 56 53" fill="none" xmlns="http://www.w3.org/2000/svg">
<path fill-rule="evenodd" clip-rule="evenodd" d="M28 0.23584L28.7895 0.724598L55.0395 16.9746L55.75 17.4144V18.25V50.75V52.25H54.25H1.75H0.25V50.75V18.25V17.4144L0.960468 16.9746L27.2105 0.724598L28 0.23584ZM3.25 21.293L19.3704 33.6712L3.25 47.4887V21.293ZM5.80489 49.25H50.1951L33.2738 34.746L28 30.2256L22.7262 34.746L5.80489 49.25ZM52.75 47.4887L36.6296 33.6712L52.75 21.293V47.4887ZM51.6144 18.3826L28 3.76415L4.38562 18.3826L21.698 31.6761L27.0238 27.1111L28 26.2744L28.9762 27.1111L34.302 31.6761L51.6144 18.3826Z" fill="white"/>
</svg>
