<svg width="70" height="70" viewBox="0 0 70 70" fill="none" xmlns="http://www.w3.org/2000/svg">
<path fill-rule="evenodd" clip-rule="evenodd" d="M35 5.875C23.7526 5.875 14.625 15.0296 14.625 26.3345C14.625 29.0747 15.8567 32.73 17.8864 36.8163C19.8925 40.8551 22.5827 45.1302 25.2961 49.0531C28.0059 52.9706 30.7188 56.5078 32.7557 59.0672C33.657 60.1997 34.4248 61.1393 35 61.834C35.5752 61.1393 36.343 60.1997 37.2443 59.0672C39.2812 56.5078 41.9941 52.9706 44.7039 49.0531C47.4173 45.1302 50.1075 40.8551 52.1136 36.8163C54.1433 32.73 55.375 29.0747 55.375 26.3345C55.375 15.0296 46.2474 5.875 35 5.875ZM35 64.1667C33.8631 65.1452 33.8629 65.1449 33.8626 65.1446L33.8616 65.1435L33.8582 65.1394L33.8454 65.1245L33.7966 65.0674C33.7539 65.0175 33.6911 64.9438 33.6097 64.8476C33.4467 64.6552 33.2089 64.3727 32.9068 64.0094C32.3026 63.283 31.4413 62.2333 30.4084 60.9354C28.3437 58.3412 25.5878 54.7483 22.8289 50.7597C20.0736 46.7764 17.295 42.3695 15.1996 38.1508C13.1277 33.9796 11.625 29.802 11.625 26.3345C11.625 13.3836 22.0849 2.875 35 2.875C47.9151 2.875 58.375 13.3836 58.375 26.3345C58.375 29.802 56.8723 33.9796 54.8004 38.1508C52.705 42.3695 49.9264 46.7764 47.1711 50.7597C44.4122 54.7483 41.6563 58.3412 39.5916 60.9354C38.5587 62.2333 37.6974 63.283 37.0932 64.0094C36.7911 64.3727 36.5533 64.6552 36.3903 64.8476C36.3089 64.9438 36.2461 65.0175 36.2034 65.0674L36.1546 65.1245L36.1418 65.1394L36.1384 65.1435L36.1374 65.1446C36.1371 65.1449 36.1369 65.1452 35 64.1667ZM35 64.1667L36.1369 65.1452L35 66.4661L33.8631 65.1452L35 64.1667ZM35 17.6993C30.2579 17.6993 26.4038 21.5599 26.4038 26.3345C26.4038 31.109 30.2579 34.9696 35 34.9696C39.7421 34.9696 43.5962 31.109 43.5962 26.3345C43.5962 21.5599 39.7421 17.6993 35 17.6993ZM23.4038 26.3345C23.4038 19.914 28.5902 14.6993 35 14.6993C41.4098 14.6993 46.5962 19.914 46.5962 26.3345C46.5962 32.7549 41.4098 37.9696 35 37.9696C28.5902 37.9696 23.4038 32.7549 23.4038 26.3345Z" fill="#009999"/>
</svg>
