<svg width="70" height="70" viewBox="0 0 70 70" fill="none" xmlns="http://www.w3.org/2000/svg">
<path fill-rule="evenodd" clip-rule="evenodd" d="M35 4.06921L35.7895 4.55797L66.4145 23.5163L67.125 23.9561V24.7917V62.7084V64.2084H65.625H4.375H2.875V62.7084V24.7917V23.9561L3.58547 23.5163L34.2105 4.55797L35 4.06921ZM5.875 27.8347L25.3288 42.7724L5.875 59.447V27.8347ZM8.42989 61.2084H61.5701L41.3155 43.8473L35 38.434L28.6845 43.8473L8.42989 61.2084ZM64.125 59.447L44.6712 42.7724L64.125 27.8347V59.447ZM62.9894 24.9243L35 7.59753L7.01062 24.9243L27.6564 40.7773L34.0238 35.3195L35 34.4828L35.9762 35.3195L42.3436 40.7773L62.9894 24.9243Z" fill="#009999"/>
</svg>
